# xmcd
#
# Track frame offsets: 
#        150
#        14268
#        28812
#        42257
#        55941
#        68578
#        81066
#        95306
#        109156
#        121090
#        135116
#        147623
#        158806
#        169356
#        180301
#        194444
#        208675
#        222487
#        236381
#        249494
#        263851
#        275658
#        287849
#        299498
#        310946
#
# Disc length: 4305 seconds
#
# Revision: 2
# Processed by: cddbd v1.5.2PL0 Copyright (c) Steve Scherf et al.
# Submitted via: ExactAudioCopyFreeDBPlugin 1.0
#
DISCID=7310cf19
DTITLE=Various Artist - The Dawn of Doo-Wop [Proper Records]
DYEAR=2002
DGENRE=Rhythm and Blues
TTITLE0=The Dozier Boys - She's Gone
TTITLE1=The Mello-Moods - Where Are You
TTITLE2=The Five Keys - With a Broken Heart
TTITLE3=The Melody Masters - Don't You Ever Mind Them
TTITLE4=The Rivals - Don't Say Your Sorry Again
TTITLE5=The Royales - Give Me One More Chance
TTITLE6=The Cardinals - Shouldn't I Know
TTITLE7=The Dominoes - Do Something for Me
TTITLE8=The Five Keys - Too Late Baby
TTITLE9=Johnny Moore and The Three Blazers - What Does it Matter
TTITLE10=The Royal Sons Quintet - Journey's End
TTITLE11=The Orioles - I'd Rather Have You Under the Moon
TTITLE12=The Dreamers - Can't Get You Off My Mind
TTITLE13=The Dominoes - Weeping Willow Blues
TTITLE14=The Sultans - You Captured My Heart
TTITLE15=The Five Keys - The Glory of Love
TTITLE16=The Cardinals - I'll Always Love You
TTITLE17=The Striders - Cool Saturday Night
TTITLE18=The Basin Street Boys - Summertime Gal
TTITLE19=The Dominoes - I Am with You
TTITLE20=The Larks - I Don't Believe in Tomorrow
TTITLE21=The Four Blues - Missing You
TTITLE22=The Rhythm Kings - Christmas is Coming at Last
TTITLE23=The Dreamers - These Things I Miss
TTITLE24=The Four Blues - As Long as I Live
EXTD=
EXTT0=
EXTT1=
EXTT2=
EXTT3=
EXTT4=
EXTT5=
EXTT6=
EXTT7=
EXTT8=
EXTT9=
EXTT10=
EXTT11=
EXTT12=
EXTT13=
EXTT14=
EXTT15=
EXTT16=
EXTT17=
EXTT18=
EXTT19=
EXTT20=
EXTT21=
EXTT22=
EXTT23=
EXTT24=
PLAYORDER=
